<svg xmlns="http://www.w3.org/2000/svg" xmlns:xlink="http://www.w3.org/1999/xlink" viewBox="0 0 512.54 412.94"><defs><style>.cls-1{isolation:isolate;}.cls-2,.cls-36{opacity:0.5;}.cls-3{fill:#939598;opacity:0;}.cls-10,.cls-11,.cls-12,.cls-13,.cls-14,.cls-15,.cls-16,.cls-17,.cls-18,.cls-19,.cls-20,.cls-21,.cls-22,.cls-23,.cls-24,.cls-25,.cls-26,.cls-27,.cls-28,.cls-29,.cls-3,.cls-30,.cls-31,.cls-32,.cls-33,.cls-34,.cls-35,.cls-36,.cls-37,.cls-38,.cls-39,.cls-4,.cls-40,.cls-41,.cls-42,.cls-43,.cls-44,.cls-45,.cls-46,.cls-47,.cls-48,.cls-49,.cls-5,.cls-50,.cls-51,.cls-52,.cls-53,.cls-54,.cls-55,.cls-56,.cls-57,.cls-58,.cls-59,.cls-6,.cls-60,.cls-61,.cls-62,.cls-63,.cls-64,.cls-65,.cls-66,.cls-67,.cls-68,.cls-69,.cls-7,.cls-73,.cls-77,.cls-8,.cls-9{mix-blend-mode:multiply;}.cls-4{fill:#929497;opacity:0.02;}.cls-5{fill:#919396;opacity:0.03;}.cls-6{fill:#909294;opacity:0.05;}.cls-7{fill:#8f9193;opacity:0.06;}.cls-8{fill:#8d8f92;opacity:0.08;}.cls-9{fill:#8c8e91;opacity:0.09;}.cls-10{fill:#8b8d90;opacity:0.11;}.cls-11{fill:#8a8c8f;opacity:0.12;}.cls-12{fill:#898b8d;opacity:0.14;}.cls-13{fill:#888a8c;opacity:0.15;}.cls-14{fill:#87888b;opacity:0.17;}.cls-15{fill:#85878a;opacity:0.18;}.cls-16{fill:#848689;opacity:0.2;}.cls-17{fill:#838588;opacity:0.21;}.cls-18{fill:#828486;opacity:0.23;}.cls-19{fill:#818385;opacity:0.24;}.cls-20{fill:#808284;opacity:0.26;}.cls-21{fill:#7f8083;opacity:0.27;}.cls-22{fill:#7d7f82;opacity:0.29;}.cls-23{fill:#7c7e81;opacity:0.3;}.cls-24{fill:#7b7d7f;opacity:0.32;}.cls-25{fill:#7a7c7e;opacity:0.33;}.cls-26{fill:#797b7d;opacity:0.35;}.cls-27{fill:#78797c;opacity:0.36;}.cls-28{fill:#77787b;opacity:0.38;}.cls-29{fill:#757779;opacity:0.39;}.cls-30{fill:#747678;opacity:0.41;}.cls-31{fill:#737577;opacity:0.42;}.cls-32{fill:#727376;opacity:0.44;}.cls-33{fill:#717275;opacity:0.45;}.cls-34{fill:#6f7173;opacity:0.47;}.cls-35{fill:#6e7072;opacity:0.48;}.cls-36{fill:#6d6e71;}.cls-37{fill:#6c6d70;opacity:0.52;}.cls-38{fill:#6b6c6e;opacity:0.53;}.cls-39{fill:#696b6d;opacity:0.55;}.cls-40{fill:#68696c;opacity:0.56;}.cls-41{fill:#67686b;opacity:0.58;}.cls-42{fill:#666769;opacity:0.59;}.cls-43{fill:#646668;opacity:0.61;}.cls-44{fill:#636467;opacity:0.62;}.cls-45{fill:#626365;opacity:0.64;}.cls-46{fill:#616264;opacity:0.65;}.cls-47{fill:#5f6063;opacity:0.67;}.cls-48{fill:#5e5f61;opacity:0.68;}.cls-49{fill:#5d5e60;opacity:0.7;}.cls-50{fill:#5b5c5f;opacity:0.71;}.cls-51{fill:#5a5b5d;opacity:0.73;}.cls-52{fill:#595a5c;opacity:0.74;}.cls-53{fill:#57585a;opacity:0.76;}.cls-54{fill:#565759;opacity:0.77;}.cls-55{fill:#555557;opacity:0.79;}.cls-56{fill:#535456;opacity:0.8;}.cls-57{fill:#525255;opacity:0.82;}.cls-58{fill:#515153;opacity:0.83;}.cls-59{fill:#4f5052;opacity:0.85;}.cls-60{fill:#4e4e50;opacity:0.86;}.cls-61{fill:#4c4d4f;opacity:0.88;}.cls-62{fill:#4b4b4d;opacity:0.89;}.cls-63{fill:#4a4a4c;opacity:0.91;}.cls-64{fill:#48484a;opacity:0.92;}.cls-65{fill:#474748;opacity:0.94;}.cls-66{fill:#454547;opacity:0.95;}.cls-67{fill:#444345;opacity:0.97;}.cls-68{fill:#424244;opacity:0.98;}.cls-69,.cls-77{fill:#414042;}.cls-70{fill:url(#radial-gradient);}.cls-71{fill:url(#radial-gradient-2);}.cls-72,.cls-74,.cls-75{mix-blend-mode:screen;}.cls-72{fill:url(#radial-gradient-3);}.cls-73{fill:#1c1650;}.cls-74{fill:url(#linear-gradient);}.cls-75{fill:url(#linear-gradient-2);}.cls-76,.cls-77,.cls-78,.cls-79,.cls-80{fill-rule:evenodd;}.cls-76{fill:url(#radial-gradient-4);}.cls-78{fill:url(#radial-gradient-5);}.cls-79,.cls-80{mix-blend-mode:lighten;}.cls-79{fill:url(#linear-gradient-3);}.cls-80{fill:url(#linear-gradient-4);}.cls-81{fill:url(#radial-gradient-6);}.cls-82{fill:url(#radial-gradient-7);}.cls-83{font-size:72px;fill:#231f20;font-family:LaGagliane-PersonalUse, La Gagliane;}.cls-84{letter-spacing:-0.11em;}.cls-85{letter-spacing:-0.13em;}.cls-86{letter-spacing:-0.04em;}</style><radialGradient id="radial-gradient" cx="396.8" cy="133.82" r="35.87" gradientTransform="translate(-91.2 -139.27) rotate(15.47)" gradientUnits="userSpaceOnUse"><stop offset="0" stop-color="#f1f2f2"/><stop offset="0.16" stop-color="#eceded"/><stop offset="0.34" stop-color="#dedfe0"/><stop offset="0.46" stop-color="#d1d3d4"/><stop offset="0.5" stop-color="#cbd0d3"/><stop offset="0.56" stop-color="#b8c6d1"/><stop offset="0.64" stop-color="#9bb7cd"/><stop offset="0.72" stop-color="#71a1c7"/><stop offset="0.81" stop-color="#3d86c0"/><stop offset="0.85" stop-color="#1c75bc"/><stop offset="1" stop-color="#dadbdd"/></radialGradient><radialGradient id="radial-gradient-2" cx="393.44" cy="144.25" r="38.82" xlink:href="#radial-gradient"/><radialGradient id="radial-gradient-3" cx="396.78" cy="135.85" r="33.44" gradientTransform="translate(-91.2 -139.27) rotate(15.47)" gradientUnits="userSpaceOnUse"><stop offset="0" stop-color="#bfdfef"/><stop offset="0.1" stop-color="#badef0"/><stop offset="0.23" stop-color="#acdbf1"/><stop offset="0.36" stop-color="#94d7f4"/><stop offset="0.46" stop-color="#7ed3f7"/><stop offset="0.54" stop-color="#71c6ef"/><stop offset="0.68" stop-color="#4da4da"/><stop offset="0.85" stop-color="#1c75bc"/><stop offset="1" stop-color="#dadbdd"/></radialGradient><linearGradient id="linear-gradient" x1="387.92" y1="141.86" x2="379.28" y2="159.87" gradientTransform="translate(-91.2 -139.27) rotate(15.47)" xlink:href="#radial-gradient"/><linearGradient id="linear-gradient-2" x1="402.6" y1="131" x2="425.85" y2="106.06" gradientTransform="translate(-91.2 -139.27) rotate(15.47)" xlink:href="#radial-gradient"/><radialGradient id="radial-gradient-4" cx="303.6" cy="81.17" r="111.39" gradientUnits="userSpaceOnUse"><stop offset="0" stop-color="#ed1c24"/><stop offset="0.16" stop-color="#e81b23"/><stop offset="0.36" stop-color="#da181f"/><stop offset="0.57" stop-color="#c21419"/><stop offset="0.79" stop-color="#a10e11"/><stop offset="1" stop-color="#7a0708"/></radialGradient><radialGradient id="radial-gradient-5" cx="212.29" cy="118.48" r="111.29" xlink:href="#radial-gradient-4"/><linearGradient id="linear-gradient-3" x1="38.01" y1="119.24" x2="208.08" y2="118.38" xlink:href="#radial-gradient-4"/><linearGradient id="linear-gradient-4" x1="382.9" y1="-5.9" x2="314.93" y2="71.03" xlink:href="#radial-gradient-4"/><radialGradient id="radial-gradient-6" cx="251.42" cy="126.54" r="83.2" xlink:href="#radial-gradient-4"/><radialGradient id="radial-gradient-7" cx="263.03" cy="72.58" r="80.16" xlink:href="#radial-gradient-4"/></defs><g class="cls-1"><g id="Layer_2" data-name="Layer 2"><g id="Layer_1-2" data-name="Layer 1"><g class="cls-2"><path class="cls-3" d="M423.22,199.41c0,12-78.19,21.73-174.64,21.73S73.94,211.41,73.94,199.41s78.19-21.73,174.64-21.73S423.22,187.41,423.22,199.41Z"/><path class="cls-4" d="M420.83,199.41c0,11.84-77.24,21.43-172.51,21.43S75.81,211.25,75.81,199.41,153.05,178,248.32,178,420.83,187.57,420.83,199.41Z"/><path class="cls-5" d="M418.44,199.41c0,11.67-76.29,21.14-170.38,21.14S77.67,211.08,77.67,199.41,154,178.27,248.06,178.27,418.44,187.74,418.44,199.41Z"/><path class="cls-6" d="M416.05,199.41c0,11.51-75.34,20.84-168.26,20.84S79.54,210.92,79.54,199.41s75.33-20.84,168.25-20.84S416.05,187.9,416.05,199.41Z"/><path class="cls-7" d="M413.65,199.41c0,11.35-74.38,20.55-166.12,20.55S81.4,210.76,81.4,199.41s74.38-20.55,166.13-20.55S413.65,188.06,413.65,199.41Z"/><path class="cls-8" d="M411.26,199.41c0,11.18-73.43,20.25-164,20.25s-164-9.07-164-20.25,73.43-20.25,164-20.25S411.26,188.23,411.26,199.41Z"/><path class="cls-9" d="M408.87,199.41c0,11-72.48,20-161.87,20s-161.87-8.94-161.87-20,72.48-20,161.87-20S408.87,188.39,408.87,199.41Z"/><path class="cls-10" d="M406.48,199.41c0,10.86-71.53,19.66-159.74,19.66S87,210.27,87,199.41s71.52-19.66,159.74-19.66S406.48,188.55,406.48,199.41Z"/><path class="cls-11" d="M404.09,199.41c0,10.69-70.58,19.36-157.61,19.36S88.86,210.1,88.86,199.41s70.57-19.36,157.62-19.36S404.09,188.72,404.09,199.41Z"/><path class="cls-12" d="M401.69,199.41c0,10.53-69.61,19.07-155.48,19.07S90.73,209.94,90.73,199.41s69.61-19.07,155.48-19.07S401.69,188.88,401.69,199.41Z"/><path class="cls-13" d="M399.3,199.41c0,10.37-68.66,18.77-153.35,18.77S92.6,209.78,92.6,199.41,161.26,180.64,246,180.64,399.3,189,399.3,199.41Z"/><path class="cls-14" d="M396.91,199.41c0,10.2-67.71,18.48-151.22,18.48S94.46,209.61,94.46,199.41s67.71-18.48,151.23-18.48S396.91,189.21,396.91,199.41Z"/><path class="cls-15" d="M394.52,199.41c0,10-66.76,18.18-149.1,18.18S96.33,209.45,96.33,199.41s66.75-18.18,149.09-18.18S394.52,189.37,394.52,199.41Z"/><path class="cls-16" d="M392.13,199.41c0,9.88-65.81,17.88-147,17.88s-147-8-147-17.88,65.8-17.88,147-17.88S392.13,189.53,392.13,199.41Z"/><path class="cls-17" d="M389.73,199.41c0,9.71-64.85,17.59-144.83,17.59s-144.84-7.88-144.84-17.59,64.85-17.59,144.84-17.59S389.73,189.7,389.73,199.41Z"/><path class="cls-18" d="M387.34,199.41c0,9.55-63.9,17.29-142.71,17.29S101.92,209,101.92,199.41s63.9-17.29,142.71-17.29S387.34,189.86,387.34,199.41Z"/><path class="cls-19" d="M385,199.41c0,9.39-62.95,17-140.58,17s-140.58-7.61-140.58-17,62.94-17,140.58-17S385,190,385,199.41Z"/><path class="cls-20" d="M382.56,199.41c0,9.22-62,16.7-138.45,16.7s-138.46-7.48-138.46-16.7,62-16.7,138.46-16.7S382.56,190.19,382.56,199.41Z"/><path class="cls-21" d="M380.17,199.41c0,9.06-61,16.41-136.33,16.41s-136.32-7.35-136.32-16.41S168.56,183,243.84,183,380.17,190.35,380.17,199.41Z"/><path class="cls-22" d="M377.77,199.41c0,8.9-60.08,16.11-134.19,16.11s-134.19-7.21-134.19-16.11,60.08-16.11,134.19-16.11S377.77,190.51,377.77,199.41Z"/><path class="cls-23" d="M375.38,199.41c0,8.73-59.13,15.81-132.06,15.81s-132.07-7.08-132.07-15.81,59.13-15.81,132.07-15.81S375.38,190.68,375.38,199.41Z"/><path class="cls-24" d="M373,199.41c0,8.57-58.18,15.52-129.94,15.52s-129.93-7-129.93-15.52,58.17-15.52,129.93-15.52S373,190.84,373,199.41Z"/><path class="cls-25" d="M370.6,199.41c0,8.41-57.23,15.22-127.81,15.22S115,207.82,115,199.41s57.23-15.22,127.81-15.22S370.6,191,370.6,199.41Z"/><path class="cls-26" d="M368.21,199.41c0,8.24-56.28,14.93-125.68,14.93s-125.68-6.69-125.68-14.93,56.27-14.93,125.68-14.93S368.21,191.17,368.21,199.41Z"/><path class="cls-27" d="M365.81,199.41c0,8.08-55.32,14.63-123.55,14.63s-123.55-6.55-123.55-14.63S174,184.78,242.26,184.78,365.81,191.33,365.81,199.41Z"/><path class="cls-28" d="M363.42,199.41c0,7.92-54.37,14.34-121.42,14.34s-121.42-6.42-121.42-14.34S174.94,185.08,242,185.08,363.42,191.49,363.42,199.41Z"/><path class="cls-29" d="M361,199.41c0,7.75-53.42,14-119.29,14s-119.3-6.29-119.3-14,53.42-14,119.3-14S361,191.66,361,199.41Z"/><path class="cls-30" d="M358.64,199.41c0,7.59-52.46,13.74-117.17,13.74S124.31,207,124.31,199.41s52.46-13.74,117.16-13.74S358.64,191.82,358.64,199.41Z"/><path class="cls-31" d="M356.25,199.41c0,7.43-51.51,13.45-115,13.45s-115-6-115-13.45S177.68,186,241.21,186,356.25,192,356.25,199.41Z"/><path class="cls-32" d="M353.85,199.41c0,7.26-50.55,13.15-112.9,13.15S128,206.67,128,199.41,178.59,186.26,241,186.26,353.85,192.15,353.85,199.41Z"/><path class="cls-33" d="M351.46,199.41c0,7.1-49.6,12.86-110.78,12.86s-110.77-5.76-110.77-12.86,49.59-12.86,110.77-12.86S351.46,192.31,351.46,199.41Z"/><path class="cls-34" d="M349.07,199.41c0,6.94-48.65,12.56-108.65,12.56s-108.65-5.62-108.65-12.56,48.65-12.56,108.65-12.56S349.07,192.47,349.07,199.41Z"/><path class="cls-35" d="M346.68,199.41c0,6.77-47.7,12.26-106.52,12.26s-106.52-5.49-106.52-12.26,47.69-12.26,106.52-12.26S346.68,192.64,346.68,199.41Z"/><path class="cls-36" d="M344.29,199.41c0,6.61-46.75,12-104.4,12S135.5,206,135.5,199.41s46.74-12,104.39-12S344.29,192.8,344.29,199.41Z"/><path class="cls-37" d="M341.89,199.41c0,6.45-45.79,11.67-102.26,11.67s-102.26-5.22-102.26-11.67,45.78-11.67,102.26-11.67S341.89,193,341.89,199.41Z"/><path class="cls-38" d="M339.5,199.41c0,6.28-44.83,11.38-100.13,11.38s-100.14-5.1-100.14-11.38S184.07,188,239.37,188,339.5,193.13,339.5,199.41Z"/><path class="cls-39" d="M337.11,199.41c0,6.12-43.88,11.08-98,11.08s-98-5-98-11.08,43.88-11.08,98-11.08S337.11,193.29,337.11,199.41Z"/><path class="cls-40" d="M334.72,199.41c0,6-42.93,10.79-95.88,10.79S143,205.37,143,199.41s42.93-10.79,95.88-10.79S334.72,193.45,334.72,199.41Z"/><path class="cls-41" d="M332.33,199.41c0,5.79-42,10.49-93.75,10.49s-93.75-4.7-93.75-10.49,42-10.49,93.75-10.49S332.33,193.62,332.33,199.41Z"/><path class="cls-42" d="M329.93,199.41c0,5.63-41,10.19-91.62,10.19S146.7,205,146.7,199.41s41-10.19,91.61-10.19S329.93,193.78,329.93,199.41Z"/><path class="cls-43" d="M327.54,199.41c0,5.47-40.07,9.9-89.49,9.9s-89.49-4.43-89.49-9.9,40.07-9.9,89.49-9.9S327.54,193.94,327.54,199.41Z"/><ellipse class="cls-44" cx="237.79" cy="199.41" rx="87.36" ry="9.6"/><ellipse class="cls-45" cx="237.52" cy="199.41" rx="85.23" ry="9.31"/><ellipse class="cls-46" cx="237.26" cy="199.41" rx="83.1" ry="9.01"/><ellipse class="cls-47" cx="237" cy="199.41" rx="80.98" ry="8.71"/><ellipse class="cls-48" cx="236.74" cy="199.41" rx="78.85" ry="8.42"/><ellipse class="cls-49" cx="236.47" cy="199.41" rx="76.72" ry="8.12"/><path class="cls-50" d="M310.8,199.41c0,4.32-33.4,7.83-74.59,7.83s-74.59-3.51-74.59-7.83,33.4-7.83,74.59-7.83S310.8,195.09,310.8,199.41Z"/><path class="cls-51" d="M308.41,199.41c0,4.16-32.45,7.53-72.46,7.53s-72.46-3.37-72.46-7.53,32.44-7.53,72.46-7.53S308.41,195.25,308.41,199.41Z"/><path class="cls-52" d="M306,199.41c0,4-31.49,7.24-70.33,7.24s-70.33-3.24-70.33-7.24,31.49-7.24,70.33-7.24S306,195.41,306,199.41Z"/><path class="cls-53" d="M303.62,199.41c0,3.83-30.54,6.94-68.2,6.94s-68.2-3.11-68.2-6.94,30.53-6.94,68.2-6.94S303.62,195.58,303.62,199.41Z"/><path class="cls-54" d="M301.23,199.41c0,3.67-29.59,6.64-66.07,6.64s-66.08-3-66.08-6.64,29.58-6.64,66.08-6.64S301.23,195.74,301.23,199.41Z"/><path class="cls-55" d="M298.84,199.41c0,3.51-28.64,6.35-63.95,6.35S171,202.92,171,199.41s28.63-6.35,63.94-6.35S298.84,195.9,298.84,199.41Z"/><path class="cls-56" d="M296.45,199.41c0,3.34-27.68,6.05-61.82,6.05s-61.82-2.71-61.82-6.05,27.68-6,61.82-6S296.45,196.07,296.45,199.41Z"/><path class="cls-57" d="M294.05,199.41c0,3.18-26.72,5.76-59.68,5.76s-59.69-2.58-59.69-5.76,26.72-5.76,59.69-5.76S294.05,196.23,294.05,199.41Z"/><path class="cls-58" d="M291.66,199.41c0,3-25.77,5.46-57.56,5.46s-57.56-2.44-57.56-5.46S202.31,194,234.1,194,291.66,196.39,291.66,199.41Z"/><path class="cls-59" d="M289.27,199.41c0,2.85-24.82,5.17-55.43,5.17s-55.43-2.32-55.43-5.17,24.82-5.16,55.43-5.16S289.27,196.56,289.27,199.41Z"/><path class="cls-60" d="M286.88,199.41c0,2.69-23.87,4.87-53.3,4.87s-53.31-2.18-53.31-4.87,23.87-4.87,53.31-4.87S286.88,196.72,286.88,199.41Z"/><path class="cls-61" d="M284.48,199.41c0,2.53-22.91,4.57-51.17,4.57s-51.17-2-51.17-4.57,22.91-4.57,51.17-4.57S284.48,196.88,284.48,199.41Z"/><path class="cls-62" d="M282.09,199.41c0,2.36-22,4.28-49,4.28s-49-1.92-49-4.28,22-4.28,49-4.28S282.09,197.05,282.09,199.41Z"/><path class="cls-63" d="M279.7,199.41c0,2.2-21,4-46.91,4s-46.92-1.78-46.92-4,21-4,46.92-4S279.7,197.21,279.7,199.41Z"/><path class="cls-64" d="M277.31,199.41c0,2-20.06,3.69-44.79,3.69s-44.78-1.65-44.78-3.69,20-3.69,44.78-3.69S277.31,197.37,277.31,199.41Z"/><path class="cls-65" d="M274.92,199.41c0,1.87-19.1,3.39-42.66,3.39s-42.66-1.52-42.66-3.39S208.7,196,232.26,196,274.92,197.54,274.92,199.41Z"/><path class="cls-66" d="M272.52,199.41c0,1.71-18.14,3.09-40.52,3.09s-40.53-1.38-40.53-3.09,18.14-3.09,40.53-3.09S272.52,197.7,272.52,199.41Z"/><path class="cls-67" d="M270.13,199.41c0,1.55-17.19,2.8-38.4,2.8s-38.4-1.25-38.4-2.8,17.2-2.8,38.4-2.8S270.13,197.86,270.13,199.41Z"/><path class="cls-68" d="M267.74,199.41c0,1.38-16.24,2.5-36.27,2.5s-36.27-1.12-36.27-2.5,16.24-2.5,36.27-2.5S267.74,198,267.74,199.41Z"/><path class="cls-69" d="M265.35,199.41c0,1.22-15.29,2.21-34.14,2.21s-34.15-1-34.15-2.21,15.29-2.21,34.15-2.21S265.35,198.19,265.35,199.41Z"/></g><path class="cls-70" d="M288.9,106.94a35.19,35.19,0,1,1-10-35.25,35.74,35.74,0,0,1,10.48,18.59A34.79,34.79,0,0,1,288.9,106.94Z"/><path class="cls-71" d="M285.59,106a31.8,31.8,0,1,1-22.18-39.16A31.71,31.71,0,0,1,286.06,91,31.36,31.36,0,0,1,285.59,106Z"/><polygon class="cls-72" points="257.65 87.69 267.9 66.44 259.98 88.67 275.19 70.63 261.99 90.18 281.21 76.5 263.56 92.17 285.58 83.68 264.59 94.46 288.03 91.72 265.02 96.95 288.4 100.12 264.81 99.46 286.66 108.35 263.99 101.85 282.94 115.89 262.6 103.95 277.46 122.26 260.73 105.64 270.57 127.08 258.5 106.81 262.7 130.02 256.05 107.39 254.34 130.92 253.52 107.35 246.02 129.71 251.09 106.68 238.27 126.47 248.91 105.41 231.56 121.4 247.1 103.65 226.32 114.83 245.79 101.51 222.89 107.15 245.05 99.09 221.47 98.87 244.94 96.57 222.16 90.49 245.46 94.1 224.9 82.54 246.58 91.84 229.54 75.53 248.22 89.93 235.77 69.89 250.29 88.49 243.21 65.98 252.65 87.6 251.4 64.04 255.16 87.33 259.8 64.2 257.65 87.69"/><path class="cls-73" d="M271.64,102.14a17.33,17.33,0,1,1-12.08-21.33A17.33,17.33,0,0,1,271.64,102.14Z"/><path class="cls-74" d="M246.19,108.54a6.71,6.71,0,1,1-4.67-8.26A6.71,6.71,0,0,1,246.19,108.54Z"/><path class="cls-75" d="M289.42,90.28a12.77,12.77,0,0,1-14.65,6.27A12.62,12.62,0,0,1,266,81a12.76,12.76,0,0,1,13-9.32A35.74,35.74,0,0,1,289.42,90.28Z"/><path class="cls-76" d="M417.84,55.88C340.33-28.59,208.39-1.46,168.59,34.49c0,0,100.4-46,142.29,70.38C353.44,223.07,490.22,134.75,417.84,55.88Z"/><path class="cls-77" d="M207.36,92.43C181.51,20.61,120.87,25,93.5,57.26,121.85,27.46,179.86,25.21,205,95c40,111.1,129.24,74.84,142.12,69.49.85-.78,1.2-1.36,2.49-2.73C349.62,161.79,249.26,208.79,207.36,92.43Z"/><path class="cls-78" d="M205,95C162.46-23.17,25.68,65.15,98.06,144c77.51,84.47,209.42,56.32,249.21,20.37C347.27,164.39,246.91,211.39,205,95Z"/><path class="cls-77" d="M310.88,104.87C269-11.49,168.59,34.49,168.59,34.49s-1.44,1.29-3.66,3.08c0,0,100.2-46.88,142.1,69.48,21.77,60.47,68.18,66.88,98.65,48.17C375.27,171.12,331.75,162.83,310.88,104.87Z"/><path class="cls-79" d="M274.6,173.39h0c-33-9.12-57.35-35.13-72.54-77.3-13.18-36.62-33.86-49.27-48.9-53.43C129,36,101.77,47.1,88.31,69.09,74.59,91.5,79.1,118.72,100.37,141.9c20.95,22.83,47.24,38.75,78.13,47.3h0c56.46,15.63,115.78,2.92,149.31-15.26C314,177.05,294.73,179,274.6,173.39Z"/><path class="cls-80" d="M415.53,58c-20.95-22.84-47.24-38.75-78.13-47.3C280.94-4.94,221.62,7.78,188.09,26c13.82-3.11,33.08-5,53.21.55,32.95,9.12,57.35,35.13,72.54,77.3,13.18,36.61,33.87,49.26,48.9,53.43h0c24.11,6.68,51.38-4.43,64.84-26.42C441.31,108.4,436.8,81.18,415.53,58Z"/><path class="cls-81" d="M274.6,173.39h0c-33-9.12-57.35-35.13-72.54-77.3-6.61-18.37-15.12-30.71-23.85-39A90.5,90.5,0,0,0,305.76,176.85,102.13,102.13,0,0,1,274.6,173.39Z"/><path class="cls-82" d="M282.05,12.8A90.28,90.28,0,0,0,210.33,23a101.83,101.83,0,0,1,31,3.47c32.95,9.12,57.35,35.13,72.54,77.3,6.61,18.36,15.11,30.7,23.84,39a90.48,90.48,0,0,0-55.63-130Z"/><text class="cls-83" transform="translate(0 349.94)"><tspan class="cls-84">E</tspan><tspan class="cls-85" x="55.69" y="0">y</tspan><tspan x="110.25" y="0">e</tspan><tspan class="cls-86" x="174.45" y="0">H</tspan><tspan x="262.48" y="0">ealth</tspan></text></g></g></g></svg>